<svg width="75" height="75" viewBox="0 0 75 75" fill="none" xmlns="http://www.w3.org/2000/svg">
<rect width="75" height="75" rx="37.5" fill="#C8F2DA"/>
<path d="M51.9999 38H50.3333V26.3333C50.3333 25.4166 49.5833 24.6666 48.6666 24.6666H25.3333C24.4166 24.6666 23.6666 25.4166 23.6666 26.3333V38H21.9999C21.0833 38 20.3333 38.75 20.3333 39.6666V46.3333C20.3333 47.25 21.0833 48 21.9999 48H23.6666V54.6666H26.9999V48H46.9999V54.6666H50.3333V48H51.9999C52.9166 48 53.6666 47.25 53.6666 46.3333V39.6666C53.6666 38.75 52.9166 38 51.9999 38ZM26.9999 28H46.9999V38H26.9999V28ZM50.3333 44.6666H23.6666V41.3333H50.3333V44.6666Z" fill="#945524"/>
<path d="M50.3333 44.6666H23.6666V41.3333H50.3333V44.6666Z" fill="#BA7139"/>
<path d="M26.9999 28H46.9999V38H26.9999V28Z" fill="#BA7139"/>
</svg>
