<svg width="47" height="58" viewBox="0 0 47 58" fill="none" xmlns="http://www.w3.org/2000/svg">
<path d="M14.6949 52.876H20.8294V55.343C20.8294 56.3176 20.0389 57.108 19.0644 57.108H14.6949C13.7203 57.108 12.9299 56.3176 12.9299 55.343V54.641C12.9299 53.6664 13.7203 52.876 14.6949 52.876Z" fill="#FFAF6A"/>
<path d="M32.0502 57.1106H27.6807C26.7062 57.1106 25.9157 56.3202 25.9157 55.3456V52.8785H32.0502C33.0248 52.8785 33.8152 53.669 33.8152 54.6435V55.3456C33.8152 56.3202 33.0248 57.1106 32.0502 57.1106Z" fill="#FFAF6A"/>
<path d="M38.5014 34.7745C38.5014 34.7745 41.943 33.8736 41.8399 29.7496C41.7368 25.6255 46.7961 25.2107 46.9679 29.4034C47.1398 33.5962 45.1784 39.2815 38.5014 40.9434V34.7745Z" fill="#FFAF6A"/>
<mask id="mask0_55170_2729" style="mask-type:luminance" maskUnits="userSpaceOnUse" x="38" y="26" width="9" height="15">
<path d="M38.5014 34.7745C38.5014 34.7745 41.943 33.8736 41.8399 29.7496C41.7368 25.6255 46.7961 25.2107 46.9679 29.4034C47.1398 33.5962 45.1784 39.2815 38.5014 40.9434V34.7745Z" fill="white"/>
</mask>
<g mask="url(#mask0_55170_2729)">
<path d="M40.3376 32.8376H36.9181V43.1379H40.3376V32.8376Z" fill="#EC862B"/>
</g>
<path d="M8.47678 34.7745C8.47678 34.7745 5.03517 33.8736 5.13827 29.7496C5.24137 25.6255 0.18206 25.2107 0.0102253 29.4034C-0.16161 33.5962 1.79976 39.2815 8.47678 40.9434V34.7745Z" fill="#FFAF6A"/>
<mask id="mask1_55170_2729" style="mask-type:luminance" maskUnits="userSpaceOnUse" x="0" y="26" width="9" height="15">
<path d="M8.47678 34.7745C8.47678 34.7745 5.03517 33.8736 5.13827 29.7496C5.24137 25.6255 0.18206 25.2107 0.0102253 29.4034C-0.16161 33.5962 1.79976 39.2815 8.47678 40.9434V34.7745Z" fill="white"/>
</mask>
<g mask="url(#mask1_55170_2729)">
<path d="M6.64057 32.8376H10.0601V43.1379H6.64057V32.8376Z" fill="#EC862B"/>
</g>
<path d="M37.6127 18.3299C37.0776 17.0485 36.2258 15.6542 34.8732 14.5839C31.547 11.95 31.2696 11.4295 31.2352 9.87076C31.2008 8.31197 31.2352 4.91455 31.2352 4.91455L23.3333 4.98328L15.4313 4.91455C15.4313 4.91455 15.4657 8.31197 15.4313 9.87076C15.3969 11.4295 15.1195 11.95 11.7933 14.5839C10.4407 15.6542 9.58892 17.051 9.05378 18.3299C8.44745 19.7807 8.16515 21.3444 8.16515 22.9179V46.965C8.16515 52.0489 14.4494 52.9719 14.4494 52.9719C14.4494 52.9719 18.598 53.0774 23.2989 53.0921C23.2989 53.0921 23.321 53.0921 23.3333 53.0921C23.3455 53.0921 23.3553 53.0921 23.3676 53.0921C28.0685 53.075 32.2171 52.9719 32.2171 52.9719C32.2171 52.9719 38.5014 52.0489 38.5014 46.965V22.9179C38.5014 21.3469 38.2191 19.7807 37.6127 18.3299Z" fill="url(#paint0_radial_55170_2729)"/>
<mask id="mask2_55170_2729" style="mask-type:luminance" maskUnits="userSpaceOnUse" x="8" y="4" width="31" height="50">
<path d="M37.6127 18.3299C37.0776 17.0485 36.2258 15.6542 34.8732 14.5839C31.547 11.95 31.2696 11.4295 31.2352 9.87076C31.2008 8.31197 31.2352 4.91455 31.2352 4.91455L23.3333 4.98328L15.4313 4.91455C15.4313 4.91455 15.4657 8.31197 15.4313 9.87076C15.3969 11.4295 15.1195 11.95 11.7933 14.5839C10.4407 15.6542 9.58892 17.051 9.05378 18.3299C8.44745 19.7807 8.16515 21.3444 8.16515 22.9179V46.965C8.16515 52.0489 14.4494 52.9719 14.4494 52.9719C14.4494 52.9719 18.598 53.0774 23.2989 53.0921C23.2989 53.0921 23.321 53.0921 23.3333 53.0921C23.3455 53.0921 23.3553 53.0921 23.3676 53.0921C28.0685 53.075 32.2171 52.9719 32.2171 52.9719C32.2171 52.9719 38.5014 52.0489 38.5014 46.965V22.9179C38.5014 21.3469 38.2191 19.7807 37.6127 18.3299Z" fill="white"/>
</mask>
<g mask="url(#mask2_55170_2729)">
<path d="M33.636 3.53516H14.0198V7.07005H33.636V3.53516Z" fill="#EC862B"/>
</g>
<path d="M31.3334 0H15.3871C14.2998 0 13.4184 0.881434 13.4184 1.96874V3.29923C13.4184 4.38653 14.2998 5.26797 15.3871 5.26797H31.3334C32.4207 5.26797 33.3021 4.38653 33.3021 3.29923V1.96874C33.3021 0.881434 32.4207 0 31.3334 0Z" fill="#FFAF6A"/>
<path d="M25.086 33.1153H21.5265C21.0724 33.1129 20.7508 32.698 20.7484 32.3347C20.7484 31.8732 21.0798 31.4878 21.5732 31.4902L25.3388 31.5099C25.8028 31.5099 26.009 32.0892 25.9525 32.4108C25.874 32.8502 25.5598 33.1178 25.086 33.1178V33.1153Z" fill="#111111"/>
<path d="M17.6996 30.3733C17.027 29.9682 16.7938 29.195 17.022 28.4954C17.2307 27.8571 17.8493 27.3637 18.6177 27.4202C19.656 27.4963 20.3041 28.4806 20.0046 29.4797C19.7346 30.3856 18.6275 30.9354 17.6996 30.3757V30.3733Z" fill="#111111"/>
<path d="M29.1781 30.2554C28.6086 30.7365 27.8084 30.6702 27.2659 30.2652C26.7234 29.8601 26.5049 29.1212 26.7332 28.483C26.9615 27.8448 27.5776 27.3685 28.3116 27.4201C28.9916 27.4667 29.4776 27.9159 29.6838 28.4683C29.917 29.0869 29.7305 29.7865 29.1781 30.2529V30.2554Z" fill="#111111"/>
<defs>
<radialGradient id="paint0_radial_55170_2729" cx="0" cy="0" r="1" gradientUnits="userSpaceOnUse" gradientTransform="translate(23.3333 29.0033) rotate(90) scale(24.0888 15.1681)">
<stop stop-color="#FFEAD7"/>
<stop offset="1" stop-color="#FFB773"/>
</radialGradient>
</defs>
</svg>
